<mxfile host="app.diagrams.net" modified="2023-09-26T11:45:35.650Z" agent="Mozilla/5.0 (Windows NT 10.0; Win64; x64) AppleWebKit/537.36 (KHTML, like Gecko) Chrome/116.0.0.0 Safari/537.36" version="21.8.2" etag="L1i5_ZjmTA4W97UfiNCR" type="github">
  <diagram name="Page-1" id="PlRaamHKNmshIAI-MbCV">
    <mxGraphModel>
      <root>
        <mxCell id="0" />
        <mxCell id="1" parent="0" />
      </root>
    </mxGraphModel>
  </diagram>
</mxfile>
